<mxfile host="app.diagrams.net" modified="2023-04-12T12:45:00.924Z" agent="Mozilla/5.0 (Macintosh; Intel Mac OS X 10.15; rv:109.0) Gecko/20100101 Firefox/111.0" etag="Tc9TXhGLj1eORmliNMjc" version="21.1.7" type="google">
  <diagram name="Pagina-1" id="-QweHw53B4XR3jYKkK34">
    <mxGraphModel grid="1" page="1" gridSize="10" guides="1" tooltips="1" connect="1" arrows="1" fold="1" pageScale="1" pageWidth="827" pageHeight="1169" math="0" shadow="0">
      <root>
        <mxCell id="0" />
        <mxCell id="1" parent="0" />
        <mxCell id="ngZP-IFRHLowPxr1H42a-1" value="" style="edgeStyle=orthogonalEdgeStyle;rounded=0;orthogonalLoop=1;jettySize=auto;html=1;" edge="1" parent="1" source="ngZP-IFRHLowPxr1H42a-2" target="ngZP-IFRHLowPxr1H42a-4">
          <mxGeometry relative="1" as="geometry" />
        </mxCell>
        <mxCell id="ngZP-IFRHLowPxr1H42a-2" value="Start" style="ellipse;whiteSpace=wrap;html=1;" vertex="1" parent="1">
          <mxGeometry x="360" y="20" width="120" height="80" as="geometry" />
        </mxCell>
        <mxCell id="ngZP-IFRHLowPxr1H42a-3" value="" style="edgeStyle=orthogonalEdgeStyle;rounded=0;orthogonalLoop=1;jettySize=auto;html=1;" edge="1" parent="1" source="ngZP-IFRHLowPxr1H42a-4">
          <mxGeometry relative="1" as="geometry">
            <mxPoint x="420" y="230" as="targetPoint" />
          </mxGeometry>
        </mxCell>
        <mxCell id="ngZP-IFRHLowPxr1H42a-4" value="int somma = 0" style="rounded=0;whiteSpace=wrap;html=1;" vertex="1" parent="1">
          <mxGeometry x="360" y="130" width="120" height="60" as="geometry" />
        </mxCell>
        <mxCell id="ngZP-IFRHLowPxr1H42a-13" value="Start" style="ellipse;whiteSpace=wrap;html=1;" vertex="1" parent="1">
          <mxGeometry x="590" y="740" width="120" height="80" as="geometry" />
        </mxCell>
        <mxCell id="ngZP-IFRHLowPxr1H42a-21" value="" style="edgeStyle=orthogonalEdgeStyle;rounded=0;orthogonalLoop=1;jettySize=auto;html=1;" edge="1" parent="1" source="ngZP-IFRHLowPxr1H42a-14" target="ngZP-IFRHLowPxr1H42a-15">
          <mxGeometry relative="1" as="geometry" />
        </mxCell>
        <mxCell id="ngZP-IFRHLowPxr1H42a-14" value="numero=0" style="rounded=0;whiteSpace=wrap;html=1;" vertex="1" parent="1">
          <mxGeometry x="360" y="230" width="120" height="60" as="geometry" />
        </mxCell>
        <mxCell id="ngZP-IFRHLowPxr1H42a-22" value="" style="edgeStyle=orthogonalEdgeStyle;rounded=0;orthogonalLoop=1;jettySize=auto;html=1;" edge="1" parent="1" source="ngZP-IFRHLowPxr1H42a-15" target="ngZP-IFRHLowPxr1H42a-18">
          <mxGeometry relative="1" as="geometry" />
        </mxCell>
        <mxCell id="ngZP-IFRHLowPxr1H42a-28" style="edgeStyle=orthogonalEdgeStyle;rounded=0;orthogonalLoop=1;jettySize=auto;html=1;" edge="1" parent="1" source="ngZP-IFRHLowPxr1H42a-15" target="ngZP-IFRHLowPxr1H42a-26">
          <mxGeometry relative="1" as="geometry" />
        </mxCell>
        <mxCell id="ngZP-IFRHLowPxr1H42a-30" value="F" style="edgeLabel;html=1;align=center;verticalAlign=middle;resizable=0;points=[];" connectable="0" vertex="1" parent="ngZP-IFRHLowPxr1H42a-28">
          <mxGeometry x="-0.7169" y="3" relative="1" as="geometry">
            <mxPoint as="offset" />
          </mxGeometry>
        </mxCell>
        <mxCell id="ngZP-IFRHLowPxr1H42a-15" value="numero!=-1" style="rhombus;whiteSpace=wrap;html=1;" vertex="1" parent="1">
          <mxGeometry x="360" y="320" width="120" height="110" as="geometry" />
        </mxCell>
        <mxCell id="ngZP-IFRHLowPxr1H42a-23" value="" style="edgeStyle=orthogonalEdgeStyle;rounded=0;orthogonalLoop=1;jettySize=auto;html=1;" edge="1" parent="1" source="ngZP-IFRHLowPxr1H42a-16" target="ngZP-IFRHLowPxr1H42a-20">
          <mxGeometry relative="1" as="geometry" />
        </mxCell>
        <mxCell id="ngZP-IFRHLowPxr1H42a-16" value="somma+=numero" style="rounded=0;whiteSpace=wrap;html=1;" vertex="1" parent="1">
          <mxGeometry x="360" y="450" width="120" height="60" as="geometry" />
        </mxCell>
        <mxCell id="ngZP-IFRHLowPxr1H42a-24" value="" style="edgeStyle=orthogonalEdgeStyle;rounded=0;orthogonalLoop=1;jettySize=auto;html=1;" edge="1" parent="1" source="ngZP-IFRHLowPxr1H42a-17" target="ngZP-IFRHLowPxr1H42a-19">
          <mxGeometry relative="1" as="geometry" />
        </mxCell>
        <mxCell id="ngZP-IFRHLowPxr1H42a-17" value="Scrivi un numero" style="shape=parallelogram;perimeter=parallelogramPerimeter;whiteSpace=wrap;html=1;fixedSize=1;" vertex="1" parent="1">
          <mxGeometry x="360" y="540" width="120" height="60" as="geometry" />
        </mxCell>
        <mxCell id="ngZP-IFRHLowPxr1H42a-18" value="O" style="text;html=1;align=center;verticalAlign=middle;resizable=0;points=[];autosize=1;strokeColor=none;fillColor=none;" vertex="1" parent="1">
          <mxGeometry x="455" y="515" width="30" height="30" as="geometry" />
        </mxCell>
        <mxCell id="ngZP-IFRHLowPxr1H42a-25" style="edgeStyle=orthogonalEdgeStyle;rounded=0;orthogonalLoop=1;jettySize=auto;html=1;entryX=0;entryY=0.5;entryDx=0;entryDy=0;" edge="1" parent="1" source="ngZP-IFRHLowPxr1H42a-19" target="ngZP-IFRHLowPxr1H42a-15">
          <mxGeometry relative="1" as="geometry">
            <Array as="points">
              <mxPoint x="420" y="730" />
              <mxPoint x="210" y="730" />
              <mxPoint x="210" y="375" />
            </Array>
          </mxGeometry>
        </mxCell>
        <mxCell id="ngZP-IFRHLowPxr1H42a-19" value="numero" style="shape=parallelogram;perimeter=parallelogramPerimeter;whiteSpace=wrap;html=1;fixedSize=1;" vertex="1" parent="1">
          <mxGeometry x="360" y="625" width="120" height="60" as="geometry" />
        </mxCell>
        <mxCell id="ngZP-IFRHLowPxr1H42a-20" value="I" style="text;html=1;align=center;verticalAlign=middle;resizable=0;points=[];autosize=1;strokeColor=none;fillColor=none;" vertex="1" parent="1">
          <mxGeometry x="450" y="600" width="30" height="30" as="geometry" />
        </mxCell>
        <mxCell id="ngZP-IFRHLowPxr1H42a-26" value="somma" style="shape=parallelogram;perimeter=parallelogramPerimeter;whiteSpace=wrap;html=1;fixedSize=1;" vertex="1" parent="1">
          <mxGeometry x="590" y="650" width="120" height="60" as="geometry" />
        </mxCell>
        <mxCell id="ngZP-IFRHLowPxr1H42a-27" value="o" style="text;html=1;align=center;verticalAlign=middle;resizable=0;points=[];autosize=1;strokeColor=none;fillColor=none;" vertex="1" parent="1">
          <mxGeometry x="685" y="625" width="30" height="30" as="geometry" />
        </mxCell>
        <mxCell id="ngZP-IFRHLowPxr1H42a-29" value="V" style="text;html=1;align=center;verticalAlign=middle;resizable=0;points=[];autosize=1;strokeColor=none;fillColor=none;" vertex="1" parent="1">
          <mxGeometry x="414" y="420" width="30" height="30" as="geometry" />
        </mxCell>
      </root>
    </mxGraphModel>
  </diagram>
</mxfile>
